<svg xmlns="http://www.w3.org/2000/svg" width="16" height="14" fill="none"><path fill="#959595" d="M7.744 13.208a1.901 1.901 0 0 1-1.363-.552L1.644 7.885A4.519 4.519 0 0 1 .417 3.563a4.471 4.471 0 0 1 7.327-2.126 4.471 4.471 0 0 1 7.327 2.126 4.518 4.518 0 0 1-1.248 4.356l-4.77 4.77a1.902 1.902 0 0 1-1.31.519ZM4.724 1.294c-.737 0-1.455.239-2.044.681a3.408 3.408 0 0 0-1.275 1.86 3.49 3.49 0 0 0 .981 3.361l4.772 4.771a.88.88 0 0 0 1.24 0l4.771-4.737a3.495 3.495 0 0 0 .913-3.4 3.408 3.408 0 0 0-1.267-1.855 3.483 3.483 0 0 0-4.683.525.545.545 0 0 1-.777 0 3.47 3.47 0 0 0-2.63-1.206Z"/></svg>